# xmcd CD database file generated by OrangeCD 5.2
#
# Track frame offsets:
#	182
#	12815
#	24075
#	36592
#	48187
#	60600
#	73985
#	89102
#	102995
#	115197
#	126722
#	138900
#	152362
#	164350
#	178320
#	191500
#	208802
#	220377
#	233462
#	243095
#	254990
#	266115
#
# Disc length: 3713 seconds
#
# Revision: 1
# Processed by: cddbd v1.5.1PL0 Copyright (c) Steve Scherf et al.
# Submitted via: OrangeCD 5.2
#
DISCID=4a0e7f16
DTITLE=Various Artist - Compact Soul
DYEAR=1986
DGENRE=Soul
TTITLE0=Curtis Mayfield and The Impressions - It's Alright
TTITLE1=The Tams - Hey Girl Don't Bother Me
TTITLE2=Peggy Scott and Jo Jo Benson - Picking Wild Mountain Berries
TTITLE3=Betty Lavette - He Made A Woman Out Of Me
TTITLE4=Jerry Butler and Curtis Mayfield - He Will Break Your Heart
TTITLE5=Jimmy Hughes - Neighbour, Neighbour
TTITLE6=O.V. Wright - You're Gonna Make Me Cry
TTITLE7=Gladys Knight and The Pips - Giving Up
TTITLE8=Bobby "Blue" Bland - I Pity The Fool
TTITLE9=Gene Chandler - You Threw A Lucky Punch
TTITLE10=Bobby "Blue" Bland - Cry, Cry, Cry
TTITLE11=Doris Allen - A Shell Of A Woman
TTITLE12=Gladys Knight and The Pips - Either Way I Lose
TTITLE13=O.V. Wright - Eight Men, Four women
TTITLE14=Jerry Butler - I Stand Accused
TTITLE15=Johnny Adams - Reconsider Me
TTITLE16=Gene Chandler - Just Be True
TTITLE17=The Dells - Stay In My Corner
TTITLE18=Gene Allison - You Can Make It If You Try
TTITLE19=Curtis Mayfield and The Impressions - People Get Ready
TTITLE20=Jimmy Hughes - Steal Away
TTITLE21=Peggy Scott and Jo Jo Benson - Lover's Holiday
EXTD=
EXTT0=
EXTT1=
EXTT2=
EXTT3=
EXTT4=
EXTT5=
EXTT6=
EXTT7=
EXTT8=
EXTT9=
EXTT10=
EXTT11=
EXTT12=
EXTT13=
EXTT14=
EXTT15=
EXTT16=
EXTT17=
EXTT18=
EXTT19=
EXTT20=
EXTT21=
PLAYORDER=
